<?xml version="1.0" standalone="no"?>
<!DOCTYPE svg PUBLIC "-//W3C//DTD SVG 20010904//EN"
 "http://www.w3.org/TR/2001/REC-SVG-20010904/DTD/svg10.dtd">
<svg version="1.0" xmlns="http://www.w3.org/2000/svg"
 width="700.000000pt" height="700.000000pt" viewBox="0 0 700.000000 700.000000"
 preserveAspectRatio="xMidYMid meet">
<metadata>
Created by potrace 1.14, written by Peter Selinger 2001-2017
</metadata>
<g transform="translate(0.000000,700.000000) scale(0.100000,-0.100000)"
fill="#000000" stroke="none">
<path d="M3180 6989 c-823 -70 -1580 -421 -2161 -999 -909 -907 -1241 -2226
-869 -3459 282 -934 977 -1729 1866 -2134 593 -271 1245 -370 1886 -287 764
98 1460 441 2003 985 553 554 892 1252 992 2040 24 195 24 615 0 810 -145
1147 -813 2118 -1827 2658 -559 298 -1258 440 -1890 386z m320 -944 c126 -34
252 -115 338 -218 176 -212 201 -527 60 -765 -42 -72 -158 -188 -230 -230
-187 -111 -430 -122 -624 -28 -144 69 -246 171 -314 311 -51 107 -65 170 -65
295 0 89 5 119 29 194 77 235 279 412 519 456 67 12 217 4 287 -15z m-1804
-596 c69 -33 100 -102 149 -325 42 -190 61 -240 114 -294 54 -56 60 -58 356
-120 110 -23 319 -72 465 -107 406 -100 380 -96 520 -90 109 5 156 13 370 67
250 62 630 149 754 171 129 24 163 68 251 331 109 326 147 380 264 380 89 0
179 -62 229 -156 23 -44 27 -63 27 -141 0 -85 -3 -97 -51 -215 -28 -69 -86
-231 -128 -360 -59 -185 -85 -249 -118 -300 -69 -105 -73 -106 -544 -207
l-412 -88 -6 -85 c-17 -223 -26 -748 -16 -910 12 -205 -1 -162 291 -942 296
-790 299 -799 299 -872 0 -187 -216 -344 -423 -307 -126 22 -202 81 -266 208
-83 167 -255 594 -455 1133 l-94 255 -21 -49 c-53 -122 -463 -1155 -505 -1272
-56 -155 -83 -191 -172 -235 -181 -90 -429 -18 -510 147 -33 67 -36 156 -9
249 77 271 197 602 444 1226 l121 306 11 124 c8 80 9 214 5 375 -6 250 -23
590 -31 630 -4 19 -43 29 -395 107 -215 48 -409 96 -430 107 -93 48 -173 196
-278 515 -38 116 -88 257 -112 314 -39 97 -42 110 -38 175 6 82 24 124 82 184
83 87 177 113 262 71z"/>
</g>
</svg>
